<?xml version="1.0" encoding="utf-8"?>
<!-- Generator: Adobe Illustrator 24.0.1, SVG Export Plug-In . SVG Version: 6.00 Build 0)  -->
<svg version="1.1" id="Layer_1" xmlns="http://www.w3.org/2000/svg" xmlns:xlink="http://www.w3.org/1999/xlink" x="0px" y="0px"
	 viewBox="0 0 2500 935" style="enable-background:new 0 0 2500 935;" xml:space="preserve">
<path d="M1943.3,0c-15-0.1-30.9,4.1-40.5,10.5C1878,27,1787.3,309.1,1749.5,454.1c0,0-8.2,30.2-19,99.6c-1.7,11.3-7.5,55.4-10,69.1
	c-9.4,51.2-46,78.6-77.6,72.6c-39.5-7.5-45.1-66.1-34.5-109.6c11.6-47.8,50.9-101.7,96.1-88.6c21.8,5.1,33.1,2.5,34.5-12
	c1.9-18.8-20.5-30-20.5-30c-86.8-43.7-164.3,27.8-184.2,128.7c-23.2,117.7,49.5,211.3,167.7,144.2c37-21,35,28.1,118.2,25
	c60.5-5.9,95-50.5,63.6-75.1c-20.5-16.1-34.4,15.4-68.6,11c-73.1-9.4,8.7-221.7,51.1-354c36.1-112.8,76.3-193.9,110.6-285.4
	C1990.6,12.8,1968.2,0.2,1943.3,0z M622.5,24C497,27.4,264.1,147.1,88.3,285.9c-72.1,62.7-113.6,77.5-66.6,127.7
	c41.8,41.8,68.6,10,68.6,10C130,392.3,215.6,304.7,272,262.9c80.3-59.5,191.2-145.3,289.4-168.2c77.9-19.7,101.6,3.2,91.1,82.6
	c-6.2,68.1-58.6,221.3-58.6,221.3s-80.6,36.1-104.6,45.1c-18.8,7-38.4,2.2-40.6,45.1c-1,45.9,26.9,28.6,45.6,21.5
	c14.4-5.5,48.4-21.8,61.1-27c9.4-7.3,19.7-1.1,14.5,12.5c-9.4,30.3-26.4,79.6-58.6,150.7c-40.7,97.1-113.8,229.9-123.2,263.4
	c1,21.9,24.9,25.1,56.6,25.5c29.1-2.2,42.6-22.5,42.6-22.5s37.9-81.5,96.1-224.8c42.3-104.1,70-190,81.6-228.8
	c6.3-23,19.8-27.9,37.6-32c26.6-8.7,63.8-20.4,86.6-24.5c57.6-14.2,74.2-11.2,81.6-51.1c5.2-27.8-7-40.6-7-40.6S738.3,350,713.1,357
	c-21.9,9.4-18-13.5-18-13.5s-3.1,14.5,10.5-45.1c41.2-181.1,17.2-229.3-15.5-256.8C674.6,28.7,651.5,23.3,622.5,24L622.5,24z
	 M2324.3,345.5c-21.5-0.9-70.7,35.6-51.6,128.7c-26.1,98.2-225.3,269.5-251.8,200.3c-6.5-16.9,11-44.6,56.6-54.1
	c75.2-15.7,68.9-62.4,33-67.1c-56.4-7.3-72-7.3-139.2-23c-26.5-2.8-25.7-38,5.5-37.5c12.9-0.5,45.2,3.9,114.2,6.5
	c72.2,2.7,86.5-53.5,83.6-88.1c-73.7,15.9-91.1,20-154.7,20c-66.7,0-149.2,18.4-150.7,77.1c-1.5,58.3,75,71.5,114.7,82.6
	c11,2.6,14.8,11.8,7.5,17.5c-16.9,13.5-55,31.2-59.6,63.1c-6.4,45.1,34.5,80.7,86.6,79.6c69.3-1.4,146.2-30.9,219.8-119.2
	c20.8-24.9,44.2-67.1,58.6-85.6c3.4-6.7,13.1-10,17.5-9.5c13.1,2.9,32,12.8,29.5,27c-3.8,21.8-63.6,90.2-24,131.2
	c24.3,25.2,85.9,43,134.7,7.5c45.7-33.2,29.6-63.4,11.5-65.6c-12.9-1.6-49.3,43.9-78.6,11.5c-24.3-26.9,33.6-82.3,45.1-102.1
	c16.6-28.6-47.9-50.6-75.1-86.1c-17.5-23.4,27.9-94.7-29-113.7C2327.1,346.1,2325.7,345.5,2324.3,345.5L2324.3,345.5z M2456.5,381.5
	c-11.5,0-21.4,3.9-29.5,12c-8.1,8.2-12,18.1-12,29.5c0,11.6,3.9,21.4,12,29.5c8.1,8.2,18,12.5,29.5,12.5c11.6,0,21.4-4.3,29.5-12.5
	c8.2-8.2,12.5-18,12.5-29.5s-4.4-21.4-12.5-29.5C2477.8,385.4,2468,381.5,2456.5,381.5L2456.5,381.5z M2456.5,387
	c10,0,18.5,3.5,25.5,10.5s10.5,15.6,10.5,25.5c0,10-3.5,18.5-10.5,25.5s-15.5,10.5-25.5,10.5s-18.5-3.5-25.5-10.5
	c-7-7.1-10.5-15.5-10.5-25.5c0-9.9,3.5-18.5,10.5-25.5S2446.5,387,2456.5,387L2456.5,387z M2439.4,400v45.6h8v-17.5h6.5
	c4.4,0,7.3,0,9,1c3,1.7,4.5,5.2,4.5,10.5v4l0.5,1.5c0,0.2,0,0.3,0,0.5h7.5l-0.5-0.5c-0.2-0.4,0.1-0.8,0-2s-0.5-2.5-0.5-3.5v-3.5
	c0-2.3-0.8-4.6-2.5-7s-3.9-3.9-7.5-4.5c2.8-0.5,4.9-1,6.5-2c3-1.9,4.5-5.4,4.5-9.5c0-5.8-2.2-9.5-7-11.5c-2.7-1.1-7.3-1.5-13-1.5
	L2439.4,400L2439.4,400z M2447.4,405.5h7c4.6,0,7.9,0.9,10,2s3,3.2,3,6.5c0,3.5-1.3,5.8-4.5,7c-1.7,0.7-4.5,1-8,1h-7.5V405.5z
	 M1074.1,419.1c-61.3,18.3-92.3,16-157.2,16c-68.1,0-160.1,9.5-156.2,75.1c3.3,55.2,81,70.6,121.2,75.1c11.5-1.1,14.9,9.8,6.5,15.5
	c-18.1,18.3-38.8,43.6-41.6,64.1c-6.1,44.4,16.7,83.6,73.1,82.6c60.6-1,80.4-45,181.7-106.6c28.3-17.2,63.6-46.2,78.1-48.6
	c5.6,0,13.5,1.8,13,12.5c-8.6,40.4-17.9,67.7-7.5,102.1c7.4,24.3,39.4,39.6,62.6,22c38.6-29.2,39-46.3,89.1-112.2
	c8.3-10.9,39-60.7,53.1-54.1c11.7,5.5,8.2,21.8,6,34.5c-10.5,61.7-37.3,159.2,84.6,144.2c29-3.6,52.6-23.3,30.5-44.1
	c-13.3-12.6-28.3-3.6-45.1-7.5c-39.1-9,57.7-187.2,11.5-220.3c-64.9-46.5-125.1,35.9-170.2,96.1c-17.8,23.7-31,13.4-42.6-20
	c-12.9-37.2-89.9-9.9-134.2,13C1059.8,595,928.9,717,916.7,656.1c-2.1-10.5,15.3-34,47.1-45.6c37.3-13.6,79.1-25.7,79.1-48.1
	c0-17.3-10.4-29.7-21.5-29c-52,2.9-112.5,16.5-181.7-2.5c-15.8-0.1-22.7-39.7,24-34.5c12.4,1.4,40,3.4,144.7,5.5
	C1082.3,503.6,1084,448.4,1074.1,419.1L1074.1,419.1z"/>
</svg>
