<?xml version="1.0" encoding="utf-8"?>
<!-- Generator: Adobe Illustrator 24.0.1, SVG Export Plug-In . SVG Version: 6.00 Build 0)  -->
<svg version="1.1" id="Layer_1" xmlns="http://www.w3.org/2000/svg" xmlns:xlink="http://www.w3.org/1999/xlink" x="0px" y="0px"
	 viewBox="0 0 2500 1606" style="enable-background:new 0 0 2500 1606;" xml:space="preserve">
<style type="text/css">
	.st0{fill:#FFFFFF;}
</style>
<path class="st0" d="M587.2,395.2c45,0,81.5-36.5,81.5-81.5s-36.5-81.5-81.5-81.5s-81.5,36.5-81.5,81.5S542.2,395.2,587.2,395.2"/>
<path class="st0" d="M452,495.8V321.6c0-59.2-58.5-113-103.8-99.4c-45,13.7-234,71.4-241.8,74.9C98.8,300.7,0,338.8,0,446.8
	l1.5,702.3c0,0,4.3,70.6,77.8,69.2c0,0,21.5,0,56-18.7c0,0,85-46.6,90.8-49.1c5.5-2.4,51.8-17.2,53.2,46.1V1591l139.5-44.7v-349.7
	c0-23.7,17.3-141.3,77.7-189.9c3.7-3.2,33-22,59,12.9c26.2,34.9,49,40.3,49,40.3s28.2,12.4,53.3-30.2c1.5-3,45.5-75.8,47.5-79.1
	c2-3.3,8.5-13.1,27.2-11.5c0,0,46.3-3,39,61.8c0,0,214-65,231.8-74.9c2.7-1.1,84.5-33.8,133.8-109.3c0,0,14.7-21.7,33.2-20.1
	c3.3,0,48.8,2.8,35.8,63.2c0,0,207.5-63.4,219-69.1c24.5-10.1,89.2-37,87.8-112.2c0.7-22.3-5.3-61.3-37.5-89.4
	c-1.7-1.7-142.8-105.6-144-106.5c-12.3-10.4-18.5-34,1.5-59c0,0,15.8-23,39-21.6c0,0,17.5-0.8,44.5,34.6c3.5,3.5,23.5,30.2,37.5,33
	c0,0,11.5,3.8,25.8-10.1c35-30.4,53.3-31.6,53.3-31.6s50.5-14.5,50.5,43.1v121c0,26.4,34.7,107.4,113.8,103.5
	c0,0,27.2-2.8,53.3-10.1l84.7-27.2c0,0,106.7-32.1,144-100.8c0,0,17.7-34.5,43.2-34.5c0,0,44.5-5.8,40.3,61.8l121-40.3V252.5
	c0,0-3.5-34.6,37.3-34.6c40.3,0,39,31.6,39,31.6v604.6c0,17,17.8,69.8,76.2,69.1c0,0,164-1.4,164-141.1v-53.2l-41.8,14.3v50.5
	c0,0,2.8,34-36,35.9c-3.5,0.8-41.5-0.6-40.3-37.4V52.4c0,0-3-34.6-37.5-34.6c0,0-31.5-2.8-56,40.4c-24.5,43.1-33.2,76.1-66.2,76.1
	c0,0-39.3,4.7-38.8-30.2V66.7l-124,40.4v142.4c0,35.4-26.5,211-73.2,211.6c-3.3,0.5-47.3,6.6-49-37.4V258.2c1.2-22.3-16.2-89-72-82
	l-50.2,10.1v358.4c0,11-4,63.9-63.5,66.2c-5.2,0.8-63.2-1.6-63.2-57.6V320.2c0,0-2.7-41.8,39-44.7l1.2-60.4
	c0,0-126.5,28.8-185.5,135.3c-7,7.5-21.7,14.3-31.8,14.3c-6,0-34.5-1.7-36-30.2v-38.9l-208.7,69.1c0,0-82,26-82,109.5
	c0,0,0,57.6,36,84.8L1366,668.5c0,0,24.8,17.6,12.7,47.5c-1.5,5-18.5,39.5-53.3,40.3c-6.8,0.8-28.8,0-41.8-33.2
	c0,0-11.5-43.1-48.7-30.2c0,0-70,24.5-75,26c-4.7,1.4-46,8.7-46-40.3V517.3c0-12-14.8-80.2-72-77.7c0,0-33,2.8-61.7,15.9V526
	c0,0,38.7-5.8,38.7,44.5v243.4c0,0,1.7,60.7-61.8,61.8c-53.3-0.6-62-51.4-62-57.6c-0.5-34.4,1.5-775.7,1.5-775.7L770,91.3l1.5,531.1
	c0,0-7.7,172.4-56.3,239c-14,19-63.2,19-67.5-23.1V564.8L524,603.7v110.7c0,18.6-17.3,238.5-80.5,235.3c-8,0.2-25-8.7-25.3-46.4
	l0.8-267.9l-121,43.1c0,0-1.2,147.2-1.5,155.4c-3.7,47.2,3,260.5-138.2,260.5c0,0-34.5,1.4-34.5-40.3V458.3c0,0,4-67.3,56.2-90.8
	c0,0,53.3-19,64.8-23c11.2-3.9,54.7,0,54.7,47.5v151.2L452,495.8z M2400,64.6c0-23.4,18.7-38.7,39.8-38.7c21,0,39.7,15.3,39.7,38.7
	c0,23.8-18.7,38.9-39.7,38.9C2418.7,103.4,2400,88.3,2400,64.6 M2439.8,34c-16.5,0-29.5,12.7-29.5,30.5c0,17.9,13,30.7,29.5,30.7
	c16.2,0,29.5-12.7,29.5-30.7C2469.3,46.8,2456,34,2439.8,34z M2432.7,86.3h-8.5V42.8h16.5c10.7,0,16.7,3.5,16.7,12.9
	c0,7.9-4.8,11-10.5,11.6l10.5,18.9h-9.5l-9.7-18.6h-5.5V86.3z M2432.7,61.1h7.5c6.2,0,8.5-2,8.5-6.1c0-4.1-2.7-5.3-9-5.3h-7
	L2432.7,61.1L2432.7,61.1z"/>
</svg>
