<?xml version="1.0" encoding="utf-8"?>
<!-- Generator: Adobe Illustrator 24.0.1, SVG Export Plug-In . SVG Version: 6.00 Build 0)  -->
<svg version="1.1" id="Layer_1" xmlns="http://www.w3.org/2000/svg" xmlns:xlink="http://www.w3.org/1999/xlink" x="0px" y="0px"
	 viewBox="0 0 2500 566" style="enable-background:new 0 0 2500 566;" xml:space="preserve">
<path d="M1913.2,518.9V47.4h82.5V228h90.6V47.4h84.2v471.5h-84.2V311.6h-90.6v207.3 M705.6,336.3L614.1,47.4h82.2l56.3,183.5
	L815,47.4h77.2l-95,279.6v191.9h-91.8 M1196,518.9h74V163.2l63,309.2h69.1l56-314.2v360.6h86.5V47.4h-134.4l-39.5,224.2l-45.9-224.2
	H1196 M2294.4,47.4h127.8l77.8,471.5h-84.2l-17.7-109.8h-95l-18.6,109.8h-76.4L2294.4,47.4z M2385.3,330.5l-34-210.8l-35.1,210.8
	H2385.3z M1668.7,47.4h127.5l77.8,471.5h-83.9l-18-109.8h-95l-18.3,109.8h-76.4L1668.7,47.4z M1690.2,330.5h69.4l-34.3-210.8
	L1690.2,330.5z M865.3,518.9l86.2-471.5H1079l77.8,471.5h-84.2l-17.7-109.8H960l-18.3,109.8H865.3z M973,330.5h69.4l-34.3-210.8
	L973,330.5z"/>
<g>
	<path d="M0,283.1C0,126.9,126.6,0,282.8,0s282.8,126.9,282.8,283.1S439,566,282.8,566S0,439.4,0,283.1L0,283.1z M282.8,553.8
		c149.5,0,270.9-121.1,270.9-270.6c0-149.8-121.4-270.9-270.9-270.9S11.9,133.4,11.9,283.2C11.9,432.7,133.3,553.8,282.8,553.8"/>
	<path d="M42.7,283.1c0-132.7,107.4-240.4,240.1-240.4s240.4,107.7,240.4,240.4S415.5,523.3,282.8,523.3S42.7,415.8,42.7,283.1
		L42.7,283.1z M479.7,392l-39.2-45.9c-0.6-0.6-1.2-0.9-1.7-1.5c-2-1.2-4.4-1.2-6.4,0c-6.1,2.6-13.4,2.6-19.5-0.9
		c-5.3-3-9-8.2-10.2-14.2c-2.6-14.8-11.6-28.5-25.6-36.3L359.4,283l100.2-57.8l-12.5-21.5l-112.4,64.7l-13.6-7.8v-15.4l112.4-65
		l-12.2-21.5l-100.2,57.8v-20.3c0-16.3-7.3-30.5-18.6-40.4c-4.6-4-7.2-9.8-7.3-16c0-7,3.5-13.4,9-17.1c1.8-1.2,2.9-3.3,2.9-5.5
		c0-0.9,0-1.7-0.3-2.3l-20-56.9c-0.6-1.7-2.2-2.9-4.1-2.9c-1.8,0-3.5,1.2-4.1,2.9l-20,56.9c-0.3,0.6-0.3,1.5-0.3,2.3
		c0,2.3,1.2,4.4,2.9,5.5c5.6,3.9,9,10.3,9,17.1c0,6.4-2.6,12.2-7.3,16c-11.3,9.9-18.6,24.1-18.6,40.4v20.3l-100.2-57.8l-12.2,21.5
		l112.4,65v15.4l-13.4,7.8l-112.7-64.7L106,225.4l100.2,57.8l-17.4,10.2c-14.2,7.8-22.9,21.5-25.8,36.3c-1.2,6-4.9,11.2-10.2,14.2
		c-6.1,3.5-13.4,3.5-19.5,0.9c-1.7-1.2-4.4-1.2-6.4,0c-0.6,0.6-1.2,0.9-1.5,1.4L85.9,392c-1.2,1.4-1.5,3.2-0.6,4.9
		c1,1.6,2.8,2.4,4.6,2l59.5-11c0.6-0.3,1.2-0.6,2-0.9c2-1.2,3.2-3.2,3.2-5.2c0.6-6.7,4.4-13.1,10.5-16.6c5.5-3.2,11.9-3.8,17.4-1.7
		c14.2,4.9,30.2,4.1,44.4-4.1l17.4-10.2v115.6h25V335.1l13.4-7.8l13.6,7.8v129.8H321V349.3l17.7,10.2c13.9,8.1,29.9,9,44.1,4.1
		c5.5-2,11.9-1.5,17.4,1.7c6.1,3.5,9.9,9.9,10.5,16.6c0.3,2,1.5,4.1,3.2,5.2c0.9,0.3,1.5,0.6,2.3,0.9l59.2,11c1.7,0.3,3.5-0.3,4.6-2
		C481.1,395.2,480.8,393.5,479.7,392"/>
	<path d="M282.8,301.1l-15.7-9v-18l15.7-9l15.7,9v18 M269.5,192.8c0-7.5,5.8-13.6,13.4-13.6c7.5,0,13.6,6.1,13.6,13.6l0,0v38
		l-13.6,7.8l-13.4-7.8 M211.4,339.8c-6.4,3.8-14.5,1.4-18.3-4.9c-3.8-6.4-1.5-14.8,4.9-18.3l33.1-19.2l13.4,7.8v15.7 M372.5,334.8
		c-3.8,6.4-11.9,8.7-18.3,4.9l-33.1-18.9v-15.7l13.6-7.8l32.8,19.2C374.3,320,376.3,328.4,372.5,334.8"/>
</g>
</svg>
